# xmcd
#
# Track frame offsets:
#	150
#	15092
#	25552
#	41540
#	54910
#	71382
#	87292
#	103617
#	117327
#	131445
#	142867
#	155490
#	165152
#	180415
#	194735
#	210385
#	225695
#	239300
#	253965
#	267502
#	277872
#	289915
#	302725
#	313975
#
# Disc length: 4352
#
# Revision: 3
# Processed by: cddbd v1.5.1PL0 Copyright (c) Steve Scherf et al.
# Submitted via: ExactAudioCopy v0.95a4
# Normalized: r2:DSETVAR1,TDELIM( - )
#
DISCID=4110fe18
DTITLE=Various Artist - Number One Country Hits of the 80's
DYEAR=1988
DGENRE=Country
TTITLE0=George Jones - He Stopped Loving Her Today
TTITLE1=Ricky Skaggs - I Don't Care
TTITLE2=Willie Nelson - Always On My Mind
TTITLE3=Mickey Gilley - True Love Ways
TTITLE4=Barbara Mandrell - I Was Country When Country Was'nt Cool
TTITLE5=Ed Bruce - Everything Waltz
TTITLE6=Johnny Lee - Looking For Love
TTITLE7=Don Williams - Miracles
TTITLE8=Conway Twitty - I Still Believe In Waltzes
TTITLE9=John Conlee - Busted
TTITLE10=Dolly Parton - 9 To 5
TTITLE11=Waylon Jenings - Good Ol' Boys
TTITLE12=Ricky Van Shelton - Life Turned Her That Way
TTITLE13=Rosanne Cash - Tennesse Flat Top Box
TTITLE14=Holly Dunn - Daddy's Hands
TTITLE15=Judy Rodman - I'll Be Your Baby Tonight
TTITLE16=Tompall And The Glaser Bros - Loving Her Was Easier
TTITLE17=Forester Sisters - I Fell In Love Again Last Night
TTITLE18=Janie Frickie - He's A Heartache
TTITLE19=Charlie McClain - Who's Cheatin' Who
TTITLE20=Ronnie McDowell - Older Women
TTITLE21=Conway Twitty - Tight Fittin' Jeans
TTITLE22=Hank William's Jr - Texas Women
TTITLE23=Dwight Yoakam - Honky Tonk Man
EXTD=
EXTT0=
EXTT1=
EXTT2=
EXTT3=
EXTT4=
EXTT5=
EXTT6=
EXTT7=
EXTT8=
EXTT9=
EXTT10=
EXTT11=
EXTT12=
EXTT13=
EXTT14=
EXTT15=
EXTT16=
EXTT17=
EXTT18=
EXTT19=
EXTT20=
EXTT21=
EXTT22=
EXTT23=
PLAYORDER=
